<svg width="309.436" height="311.444" viewBox="31.025 30.702 309.436 311.444" fill="none" xmlns="http://www.w3.org/2000/svg">
<path d="M150.257 75.7012L150.566 210.238L175.463 235.136L185.67 225.935L195.876 235.136L220.773 210.238H220.928L221.237 75.7012H315.954L302.423 100.289H245.67V220.213L205.231 260.496L236.392 291.656L185.824 342.146L135.257 291.656L166.417 260.496L125.979 220.213V100.289H69.2256L55.6943 75.7012H150.257ZM169.974 291.889L185.747 307.507L201.521 291.889L185.747 276.038L169.974 291.889ZM340.461 30.7021L326.93 55.29H197.341V200.961L185.743 212.56L174.146 200.961V55.29H44.5566L31.0254 30.7021H340.461Z" fill="url(#paint0_linear_794_12721)"/>
<defs>
<linearGradient id="paint0_linear_794_12721" x1="31.0254" y1="243.545" x2="340.458" y2="245.917" gradientUnits="userSpaceOnUse">
<stop stop-color="#C6A664"/>
<stop offset="0.5" stop-color="#E4CD92"/>
<stop offset="1" stop-color="#C6A664"/>
</linearGradient>
</defs>
</svg>
